PathFileType	4	(X/Y/Z)	C:\Users\WrightLab\Desktop\Jo\P4V130.trc
DataRate	CameraRate	NumFrames	NumMarkers	Units	OrigDataRate	OrigDataStartFrame	OrigNumFrames
100.00	100.00	       15	19	mm	100.00	589	       672
Frame#	Time	Headset_Front			Headset_Back			Headset_Left			Headset_Right			Left_Shoulder			Right_Shoulder			Sternum			C7			Left Elbow			Right Elbow			Left Wrist			Right Wrist			Left ASIS			Right ASIS			S2			Left Knee			Right Knee			Left Ankle			Right Ankle			
		X1	Y1	Z1	X2	Y2	Z2	X3	Y3	Z3	X4	Y4	Z4	X5	Y5	Z5	X6	Y6	Z6	X7	Y7	Z7	X8	Y8	Z8	X9	Y9	Z9	X10	Y10	Z10	X11	Y11	Z11	X12	Y12	Z12	X13	Y13	Z13	X14	Y14	Z14	X15	Y15	Z15	X16	Y16	Z16	X17	Y17	Z17	X18	Y18	Z18	X19	Y19	Z19	

589	5.880	-215.48358	1770.57446	2336.00903	20.27995	1081.14502	2334.68848							23.47648	1584.71118	2248.45435	-256.45779	1568.00708	2125.96240	-146.53629	1515.52136	2292.13916				176.46706	1244.96777	2296.56958	-391.33990	1216.25073	2103.65186	126.16139	961.12866	2420.58911	-402.05072	936.77850	2234.66138				-297.35016	1083.27698	2229.72998				58.56301	602.60596	2398.05176	-285.35294	597.67084	2251.12549	149.99680	251.08597	2043.71985	-178.98897	103.44962	2248.07764	
590	5.890	-219.00690	1770.63562	2339.67578	17.77825	1082.24963	2337.06787							20.42753	1586.08911	2251.43896	-260.10156	1568.39148	2128.62280	-149.19635	1515.74524	2295.38062				174.35115	1246.27344	2297.02368	-396.19836	1217.28308	2110.36523	124.18320	962.95172	2422.58325	-406.55630	938.13928	2242.27100				-299.43906	1083.21521	2230.84595				52.71043	604.84473	2406.75537	-285.89148	597.55865	2250.91382	144.78076	248.77206	2054.71704	-179.04391	103.38977	2248.15552	
591	5.900	-223.16843	1770.88281	2342.99316	14.55580	1083.59973	2340.58154							17.10741	1587.17114	2254.03931	-263.93234	1569.07324	2133.64941	-151.89813	1516.37903	2298.11182				172.17921	1247.15173	2297.20898	-400.91238	1217.67712	2116.52466	122.75359	964.42474	2424.00317	-410.84412	939.35907	2250.08252				-302.00674	1083.11780	2232.49805				46.36229	606.37469	2414.65308	-286.17587	597.21167	2250.42749	140.16762	244.16600	2067.86328	-179.09247	103.31577	2248.22534	
592	5.910	-226.79153	1770.97119	2346.03931	11.91871	1084.78857	2343.46021							13.75584	1587.99683	2256.15210	-266.91922	1569.66833	2136.75854	-154.92091	1517.36829	2301.58765				170.28755	1248.20691	2297.15454	-405.36887	1218.80530	2123.32690	121.34393	965.90491	2425.48047	-415.04443	940.53357	2257.57104				-304.09323	1083.65649	2234.03491				40.40298	607.26105	2420.73926	-286.30420	597.00482	2250.09888	134.96391	239.39609	2080.56055	-179.04167	103.34629	2248.15430	
593	5.920	-50.03847	1784.46521	2241.16455	9.55299	1085.41418	2346.15625							10.56807	1588.79675	2258.48438	-271.00595	1570.01489	2140.59448	-157.60503	1517.23596	2304.72241				167.97359	1249.80847	2298.64136	-409.51190	1219.43787	2129.24268	119.22111	967.71686	2427.81323	-419.23169	941.65326	2265.23584				-306.03381	1083.56604	2235.66455				34.28358	607.74500	2425.70020	-286.67276	596.99652	2250.05493	129.89503	233.31328	2094.10132	-179.31123	104.79173	2245.34521	
594	5.930	-53.91787	1785.23645	2244.24634	6.88198	1086.51379	2349.26294							7.55057	1590.08911	2261.52539	-274.51608	1570.26990	2143.38916	-160.65990	1517.87244	2307.55933				166.05518	1250.93970	2299.93604	-413.30646	1220.00964	2136.04272	117.07511	969.70715	2430.05884	-423.43390	942.81488	2272.99536				-307.95309	1083.21863	2236.93115				29.23493	610.30347	2433.30127	-286.79602	596.87970	2249.90381	124.44806	228.02448	2108.09082	-179.29745	104.79897	2245.32593	
595	5.940	-57.66162	1785.70813	2246.94995	4.44034	1087.40503	2352.18262							4.79640	1590.60071	2263.87476	-277.42545	1570.47864	2147.27271	-163.03383	1517.51404	2310.20386				164.09207	1251.70789	2300.05688	-417.31091	1220.82361	2142.53394	115.16149	971.22559	2432.07227	-427.46878	944.17352	2280.72803				-309.75418	1083.43774	2237.76367				22.48535	612.12396	2437.67480	-287.16284	596.72528	2249.81836	118.62832	220.68555	2122.26880	-179.38406	104.71059	2245.44824	
596	5.950	-61.33921	1785.99915	2250.19092	2.22850	1087.78857	2354.92505							1.20554	1591.68823	2266.93604	-280.45895	1570.85815	2150.38599	-165.78156	1518.05078	2313.13135				161.94440	1252.60291	2300.95386	-421.55774	1220.49255	2148.87598	113.40987	972.62256	2433.80396	-431.49521	945.76398	2288.41528				-311.56354	1083.84387	2238.60815				17.47988	612.89258	2442.08032	-287.68558	596.41785	2249.74146	112.96580	213.55641	2136.17383	-179.32867	104.71626	2245.37231	
597	5.960	-65.08823	1786.93616	2253.55078	-0.14651	1088.31665	2357.91553							-1.22662	1591.56152	2268.43384	-283.34363	1570.57581	2152.98071	-168.47414	1517.94922	2315.58838				160.03806	1253.80945	2302.72559	-423.37466	1220.37732	2153.11084	111.56719	973.76697	2435.68896	-435.44360	946.96387	2296.53711				-312.76440	1083.45728	2239.37720				12.45924	612.51428	2445.63721	-288.20636	596.26361	2249.80493	107.10606	205.03758	2149.67310	-179.34663	104.75575	2245.39526	
598	5.970	-68.52502	1787.52698	2256.09155	-2.46837	1088.89526	2360.60010							-4.22379	1591.95642	2271.34351	-286.74850	1570.58667	2155.68799	-171.27850	1517.90210	2318.72339				157.80736	1254.77637	2304.50171	-427.22775	1220.72876	2159.13477	109.47891	975.08606	2437.73169	-438.96872	948.27728	2304.25146				-314.41397	1083.79932	2240.91772				8.43822	614.55658	2449.80859	-288.78333	596.18274	2249.99707	101.86150	196.51488	2166.80396	-179.40369	104.65594	2245.47754	
599	5.980	-71.94384	1787.30151	2259.15820	-4.50059	1089.07544	2363.35718							-6.95617	1592.56726	2273.84814	-289.64706	1570.56494	2159.27393	-173.92528	1517.84888	2321.04517				155.90952	1255.35583	2306.10571	-430.85614	1220.99414	2164.43823	107.19994	976.70636	2439.97461	-443.11871	950.37524	2312.92334				-315.97540	1083.98669	2241.43726				3.68077	615.32526	2453.49219	-289.07062	596.13397	2250.04028	96.37123	187.89731	2182.78076	-179.39774	104.64404	2245.46973	
600	5.990	-75.02859	1787.62207	2261.91431	-7.05532	1090.00330	2366.46240							-10.15250	1593.03088	2277.42798	-292.43005	1570.70142	2162.56592	-176.38763	1517.77869	2323.62842				154.34772	1255.78955	2307.46021	-433.00894	1220.73450	2168.50977	104.91217	977.76819	2442.45386							-316.70215	1083.13696	2241.05981				0.98203	615.76654	2457.19458	-289.42200	596.02032	2250.07520	90.96527	179.30461	2198.64453	-179.40675	104.60046	2245.48389	
601	6.000	-78.48320	1787.74219	2265.45654	-9.34452	1090.01672	2369.72266							-12.53971	1593.64697	2279.55493	-294.81949	1570.07520	2164.95581	-178.70016	1517.24207	2325.57153				151.85837	1256.28223	2309.27734	-436.82962	1220.29224	2173.52222	103.07988	978.33295	2444.24683							-318.65271	1083.53186	2242.79614				-4.40857	614.69983	2457.24731	-289.72214	595.84625	2249.88745	85.28619	170.61383	2214.63623	-179.39807	104.57303	2245.47314	
602	6.010	-81.41816	1787.89136	2267.86646	-11.43482	1090.48669	2372.37842							-15.22208	1593.77588	2282.12329	-297.72690	1569.70361	2167.17529	-181.35605	1516.98047	2328.27124				150.01422	1256.68420	2311.83496	-439.04068	1220.75671	2178.39307	100.79359	978.79242	2446.75220							-317.81479	1083.77795	2243.95337				-8.55387	615.75201	2460.62476	-289.86652	595.95093	2249.90259	79.74818	163.33304	2230.42529	-179.39043	104.62206	2245.46069	
603	6.020	-84.71297	1787.88440	2270.96606	-12.95553	1090.24573	2374.71558							-18.12719	1594.28088	2284.90747	-299.65866	1568.69507	2169.25659	-183.62343	1516.70886	2330.47266				147.79929	1257.73889	2315.32788	-442.02783	1220.41858	2183.17017	99.13323	979.08868	2448.33862							-319.22852	1083.37903	2243.31836				-12.46405	614.05835	2460.45093	-289.90161	595.86011	2249.71924	74.39321	155.99519	2247.48193	-179.40993	104.50230	2245.49243	
